PathFileType	4	(X/Y/Z)	OpenSim_Sub07_CSBaseline_Magnet.trc
DataRate	CameraRate	NumFrames	NumMarkers	Units	OrigDataRate	OrigDataStartFrame	OrigNumFrames
100	100	16	8	m	100	4868	7788
Frame#	Time	torso_imu_offset_imu	pelvis_imu_offset_imu	tibia_r_imu_offset_imu	femur_r_imu_offset_imu	tibia_l_imu_offset_imu	femur_l_imu_offset_imu	toes_r_imu_offset_imu	toes_l_imu_offset_imu
				X1	Y1	Z1	X2	Y2	Z2	X3	Y3	Z3	X4	Y4	Z4	X5	Y5	Z5	X6	Y6	Z6	X7	Y7	Z7	X8		Y8	Z8	

4868	48.67000000	0.92796294	0.20938016	0.05365189	-0.72720589	0.14097666	-0.61620388	-0.57339663	-0.57872628	0.19673534	-0.76942915	-0.39061406	-0.05292714	-0.44476131	0.70602091	-0.03033582	-0.67774041	-0.37054855	0.10893757	-0.61241899	-0.37406728	-0.37986967	-0.82013119	-0.07901130	-0.06228842
4869	48.68000000	0.92679249	0.21057107	0.05284938	-0.72508216	0.13905840	-0.61764498	-0.57769930	-0.57880786	0.19466406	-0.76487082	-0.39541682	-0.05548037	-0.46976901	0.68957873	-0.01507859	-0.67720946	-0.36916023	0.10436671	-0.61898672	-0.37156632	-0.39139651	-0.81442621	-0.09321046	-0.09232408
4870	48.69000000	0.92573387	0.20381406	0.05767528	-0.72253975	0.13635157	-0.61639493	-0.57346108	-0.58721814	0.19374559	-0.76570961	-0.39465374	-0.06757706	-0.49599564	0.67092810	-0.00251275	-0.67841446	-0.37394077	0.10231677	-0.62242591	-0.37731152	-0.39728763	-0.80977932	-0.11020425	-0.11852135
4871	48.70000000	0.92887211	0.20571142	0.05941248	-0.71898394	0.13893735	-0.61545469	-0.57016587	-0.58624615	0.19901009	-0.75854549	-0.40739708	-0.06868109	-0.51870464	0.65098985	-0.00623761	-0.67808661	-0.37712883	0.10324555	-0.62694410	-0.38377298	-0.39785316	-0.80492792	-0.11766345	-0.13959298
4872	48.71000000	0.92896043	0.20497988	0.06165740	-0.71196721	0.13334987	-0.62196460	-0.56790640	-0.58763096	0.19655862	-0.75447504	-0.41241410	-0.07216552	-0.54234469	0.63135048	-0.00817632	-0.67604817	-0.37370605	0.09861234	-0.63449515	-0.38797542	-0.41167833	-0.79151708	-0.12475995	-0.16765292
4873	48.72000000	0.92482445	0.20837303	0.06412256	-0.71824896	0.12927321	-0.62589505	-0.56685848	-0.59409949	0.19512276	-0.75085882	-0.41924122	-0.07287145	-0.57005536	0.60636695	-0.00510503	-0.67870091	-0.37535397	0.09681114	-0.64439588	-0.38908312	-0.41705079	-0.78773147	-0.13923143	-0.19309536
4874	48.73000000	0.92653059	0.20491497	0.06508240	-0.71385985	0.13327437	-0.62490414	-0.56852492	-0.59097499	0.18907027	-0.74756000	-0.42832144	-0.07587129	-0.58916667	0.58125915	-0.00322589	-0.67506067	-0.37392694	0.09903694	-0.64844688	-0.39638262	-0.42056168	-0.77722950	-0.14735719	-0.21509831
4875	48.74000000	0.92680542	0.20497085	0.06272296	-0.71062352	0.12343939	-0.62867352	-0.56514892	-0.59218418	0.19116463	-0.74118884	-0.43830535	-0.07744265	-0.60851494	0.56463949	-0.00174526	-0.67751299	-0.37543862	0.10453846	-0.65176734	-0.40533979	-0.42788255	-0.77090252	-0.15430446	-0.23797654
4876	48.75000000	0.92260705	0.20444466	0.06429694	-0.71086489	0.12300551	-0.62895847	-0.56121539	-0.59867115	0.19190589	-0.73595485	-0.44595175	-0.08196945	-0.63077287	0.53518912	0.00963386	-0.67819203	-0.36899761	0.09971438	-0.66049860	-0.41103989	-0.42893015	-0.75666827	-0.16158188	-0.26393486
4877	48.76000000	0.92494187	0.19953756	0.06941608	-0.71160422	0.12564253	-0.63023586	-0.55920609	-0.60825163	0.19119932	-0.72649959	-0.45115445	-0.08441612	-0.64848374	0.50596434	0.01745974	-0.67967653	-0.36559707	0.09862736	-0.66907049	-0.41169477	-0.43215388	-0.74976427	-0.17979832	-0.28895005
4878	48.77000000	0.92776787	0.20247329	0.07297340	-0.71293577	0.12427096	-0.62929124	-0.55548793	-0.61071103	0.19251654	-0.72029889	-0.45605075	-0.09015379	-0.66981284	0.48274759	0.02574160	-0.67663625	-0.36522880	0.10966716	-0.67990654	-0.41964610	-0.43449054	-0.73786527	-0.18971892	-0.31425713
4879	48.78000000	0.92426564	0.20118037	0.07066017	-0.71000094	0.12529318	-0.63376056	-0.55086045	-0.60959247	0.19055809	-0.71695496	-0.46567040	-0.08669738	-0.68092191	0.46134319	0.03812097	-0.67543011	-0.35720287	0.11051647	-0.68873908	-0.42230637	-0.43275496	-0.72104159	-0.20207914	-0.34309112
4880	48.79000000	0.92518400	0.19958037	0.06880076	-0.70879766	0.12513212	-0.63235798	-0.54584258	-0.61331454	0.18993659	-0.71120397	-0.47469500	-0.09925994	-0.69320690	0.43737912	0.05499422	-0.67605807	-0.35454246	0.10376871	-0.69593512	-0.41945560	-0.43559403	-0.71340431	-0.22798167	-0.36421727
4881	48.80000000	0.93061120	0.19944100	0.07211075	-0.70845272	0.12673467	-0.63049196	-0.53822507	-0.62147513	0.18489670	-0.70810168	-0.48110867	-0.10524107	-0.70779669	0.41323312	0.07035348	-0.67539690	-0.34914999	0.10948995	-0.70595501	-0.42524747	-0.43283457	-0.69030809	-0.24528473	-0.38909247
4882	48.81000000	0.93030215	0.19670575	0.07025971	-0.70605321	0.12214542	-0.63107237	-0.53457229	-0.62250822	0.18664005	-0.70197757	-0.48900704	-0.10145211	-0.71232659	0.39463869	0.08593402	-0.67377180	-0.34958745	0.11574835	-0.71479006	-0.42741568	-0.42903773	-0.67086340	-0.25346259	-0.40355754
4883	48.82000000	0.92903386	0.19634034	0.07323231	-0.70805810	0.12660052	-0.62937675	-0.52625162	-0.63132618	0.19489149	-0.69691030	-0.49064703	-0.10642848	-0.72815000	0.37082506	0.09814827	-0.67317814	-0.34598707	0.12173140	-0.72443603	-0.42591345	-0.42503766	-0.65806782	-0.26434118	-0.42370152
